<svg width="44" height="40" viewBox="0 0 44 40" fill="none" xmlns="http://www.w3.org/2000/svg">
<path fill-rule="evenodd" clip-rule="evenodd" d="M32.1594 6.31387C32.3002 5.45961 33.1094 4.88074 33.9669 5.02093C37.5783 5.61129 40.3333 8.72968 40.3333 12.4948L40.3333 12.498C40.3254 16.3179 37.4835 19.468 33.7926 19.9846C32.932 20.105 32.1364 19.5077 32.0155 18.6504C31.8946 17.7932 32.4942 17.0006 33.3548 16.8801C35.5166 16.5775 37.1809 14.7293 37.1864 12.4932C37.1856 10.2901 35.573 8.46033 33.4573 8.11447C32.5998 7.97429 32.0187 7.16813 32.1594 6.31387Z" fill="#A34E00"/>
<path fill-rule="evenodd" clip-rule="evenodd" d="M35.3517 24.5089C35.4862 23.7555 36.3247 23.236 37.2244 23.3487C38.7968 23.5455 40.3334 23.894 41.5163 24.5436C42.7821 25.2387 43.6667 26.3049 43.6667 27.7473C43.6667 28.701 43.2757 29.5348 42.5689 30.2044C41.8926 30.8451 40.9922 31.276 40.0545 31.5757C39.2045 31.8473 38.2525 31.4905 37.9281 30.7788C37.6038 30.0671 38.0299 29.27 38.8798 28.9984C39.5192 28.7941 39.8949 28.5722 40.1004 28.3775C40.2754 28.2117 40.3721 28.0275 40.3721 27.7473C40.3721 27.3966 40.2211 27.1313 39.7094 26.8503C39.1149 26.5238 38.1323 26.2516 36.7373 26.077C35.8375 25.9643 35.2171 25.2622 35.3517 24.5089Z" fill="#A34E00"/>
<path fill-rule="evenodd" clip-rule="evenodd" d="M13.2097 24.4322C15.6122 23.5846 18.7752 23.3333 22.001 23.3333C25.2458 23.3333 28.4101 23.5932 30.8097 24.4512C32.0173 24.883 33.1401 25.5036 33.9739 26.4228C34.8421 27.3799 35.3333 28.5942 35.3333 30.022C35.3333 31.4531 34.8375 32.6671 33.9637 33.6202C33.1255 34.5346 31.9985 35.1481 30.7901 35.5732C28.3883 36.4182 25.2258 36.6667 22.001 36.6667C18.7565 36.6667 15.592 36.4079 13.1923 35.5518C11.9846 35.1209 10.8615 34.5016 10.0273 33.5835C9.15857 32.6275 8.66667 31.4139 8.66667 29.9864C8.66667 28.5555 9.16284 27.3416 10.0362 26.3881C10.8742 25.4733 12.001 24.8586 13.2097 24.4322ZM12.183 28.5644C11.8338 28.9456 11.648 29.384 11.648 29.9864C11.648 30.5913 11.8338 31.0328 12.1823 31.4164C12.5654 31.8379 13.1992 32.2425 14.1498 32.5816C16.0664 33.2654 18.8238 33.5304 22.001 33.5304C25.1641 33.5304 27.9225 33.275 29.8446 32.5989C30.798 32.2635 31.4337 31.8621 31.8177 31.4432C32.1662 31.063 32.352 30.6252 32.352 30.022C32.352 29.4154 32.1658 28.9724 31.8171 28.588C31.4339 28.1656 30.8003 27.7604 29.8503 27.4206C27.9345 26.7356 25.1779 26.4696 22.001 26.4696C18.8389 26.4696 16.0801 26.7275 14.1577 27.4057C13.204 27.7422 12.5676 28.1445 12.183 28.5644Z" fill="#A34E00"/>
<path fill-rule="evenodd" clip-rule="evenodd" d="M12.0001 12.4971C12.0016 7.4362 16.1054 3.33334 21.1667 3.33334C26.2289 3.33334 30.3333 7.43775 30.3333 12.5C30.3333 17.5645 26.2287 21.6667 21.1667 21.6667H21.1105L21.1055 21.6667C16.0576 21.6499 11.9824 17.5439 12.0001 12.4971ZM12.0001 12.4971C12.0001 12.4962 12.0001 12.4952 12.0001 12.4943L13.5048 12.5H12.0001C12.0001 12.4991 12.0001 12.4981 12.0001 12.4971ZM21.1667 6.34275C17.7665 6.34275 15.0095 9.0998 15.0095 12.5V12.5057H15.0095C14.9966 15.8912 17.7288 18.6447 21.1131 18.6573H21.1667C24.5672 18.6573 27.3239 15.902 27.3239 12.5C27.3239 9.0998 24.5669 6.34275 21.1667 6.34275Z" fill="#A34E00"/>
<path fill-rule="evenodd" clip-rule="evenodd" d="M11.8406 6.31387C11.9813 7.16813 11.4002 7.97429 10.5427 8.11448C8.42704 8.46033 6.81442 10.2901 6.81363 12.4932C6.81908 14.7297 8.48172 16.5775 10.6451 16.8801C11.5057 17.0005 12.1053 17.793 11.9845 18.6503C11.8637 19.5076 11.0681 20.1049 10.2076 19.9846C6.51393 19.468 3.67461 16.3174 3.66667 12.498L3.66667 12.4948C3.66667 8.72968 6.42175 5.61129 10.0331 5.02093C10.8906 4.88074 11.6998 5.45961 11.8406 6.31387Z" fill="#A34E00"/>
<path fill-rule="evenodd" clip-rule="evenodd" d="M6.98534 24.5089C7.09297 25.2622 6.59669 25.9643 5.87687 26.077C4.76086 26.2516 3.97472 26.5238 3.49912 26.8503C3.0898 27.1313 2.96901 27.3966 2.96901 27.7473C2.96901 28.0275 3.04635 28.2117 3.18637 28.3775C3.35079 28.5722 3.65134 28.7941 4.1628 28.9984C4.84278 29.27 5.18366 30.0671 4.92417 30.7788C4.66467 31.4905 3.90307 31.8473 3.22308 31.5757C2.47293 31.276 1.7526 30.8451 1.21154 30.2044C0.646078 29.5348 0.333338 28.701 0.333338 27.7473C0.333338 26.3049 1.04102 25.2387 2.05365 24.5436C2.99999 23.894 4.22927 23.5455 5.48712 23.3487C6.20694 23.236 6.87771 23.7555 6.98534 24.5089Z" fill="#A34E00"/>
</svg>
