<svg width="24" height="24" viewBox="0 0 24 24" fill="none" xmlns="http://www.w3.org/2000/svg">
<g id="icon_orders">
<g id="Buy">
<path id="Stroke 1" d="M2.75009 3.24988L4.83009 3.60988L5.79309 15.0829C5.87009 16.0199 6.65309 16.7389 7.59309 16.7359H18.5021C19.3991 16.7379 20.1601 16.0779 20.2871 15.1899L21.2361 8.63188C21.3421 7.89888 20.8331 7.21888 20.1011 7.11288C20.0371 7.10388 5.16409 7.09888 5.16409 7.09888" stroke="#130F26" stroke-width="1.5" stroke-linecap="round" stroke-linejoin="round"/>
<path id="Stroke 3" d="M14.1251 10.7948H16.8981" stroke="#130F26" stroke-width="1.5" stroke-linecap="round" stroke-linejoin="round"/>
<path id="Stroke 5" fill-rule="evenodd" clip-rule="evenodd" d="M7.15438 20.2025C7.45538 20.2025 7.69838 20.4465 7.69838 20.7465C7.69838 21.0475 7.45538 21.2915 7.15438 21.2915C6.85338 21.2915 6.61038 21.0475 6.61038 20.7465C6.61038 20.4465 6.85338 20.2025 7.15438 20.2025Z" fill="#130F26" stroke="#130F26" stroke-width="1.5" stroke-linecap="round" stroke-linejoin="round"/>
<path id="Stroke 7" fill-rule="evenodd" clip-rule="evenodd" d="M18.4347 20.2025C18.7357 20.2025 18.9797 20.4465 18.9797 20.7465C18.9797 21.0475 18.7357 21.2915 18.4347 21.2915C18.1337 21.2915 17.8907 21.0475 17.8907 20.7465C17.8907 20.4465 18.1337 20.2025 18.4347 20.2025Z" fill="#130F26" stroke="#130F26" stroke-width="1.5" stroke-linecap="round" stroke-linejoin="round"/>
</g>
</g>
</svg>
