<svg width="40" height="40" viewBox="0 0 40 40" fill="none" xmlns="http://www.w3.org/2000/svg">
<g id="icon_bookmark_medium">
<g id="Bookmark">
<path id="Stroke 1 (Stroke)" fill-rule="evenodd" clip-rule="evenodd" d="M8.45798 4.22396C10.122 3.03204 12.3338 2.58331 14.6525 2.58331H25.2506C27.6462 2.58331 29.8734 3.06629 31.5269 4.33312C33.2387 5.6446 34.1481 7.65008 34.1481 10.256V34.4816C34.1481 36.6508 31.8117 38.0126 29.9237 36.9492L19.9903 31.3379L9.96749 36.9602C9.96747 36.9602 9.9675 36.9602 9.96749 36.9602C8.07985 38.0192 5.75 36.6549 5.75 34.49V9.95027C5.75 7.39439 6.72575 5.46475 8.45798 4.22396ZM9.91378 6.25636C8.91334 6.97297 8.25 8.10182 8.25 9.95027V34.49C8.25 34.7444 8.52334 34.9039 8.74429 34.7799L19.3809 28.8133C19.762 28.5996 20.2269 28.6003 20.6073 28.8151L31.1507 34.7709C31.1507 34.771 31.1506 34.7709 31.1507 34.7709C31.3746 34.8969 31.6481 34.7351 31.6481 34.4816V10.256C31.6481 8.2772 30.9902 7.07131 30.0065 6.31763C28.9645 5.5193 27.368 5.08331 25.2506 5.08331H14.6525C12.5968 5.08331 10.9824 5.4909 9.91378 6.25636Z" fill="#003FB9"/>
<path id="Stroke 3 (Stroke)" fill-rule="evenodd" clip-rule="evenodd" d="M12.5353 15.0467C12.5353 14.3563 13.0949 13.7967 13.7853 13.7967H25.9824C26.6728 13.7967 27.2324 14.3563 27.2324 15.0467C27.2324 15.737 26.6728 16.2967 25.9824 16.2967H13.7853C13.0949 16.2967 12.5353 15.737 12.5353 15.0467Z" fill="#003FB9"/>
</g>
</g>
</svg>
