<svg width="40" height="40" viewBox="0 0 40 40" fill="none" xmlns="http://www.w3.org/2000/svg">
<g id="icon_add_user_medium">
<g id="Add User">
<path id="Stroke 1 (Stroke)" fill-rule="evenodd" clip-rule="evenodd" d="M7.72197 25.1277C10.092 24.3331 13.2312 24.0937 16.461 24.0937C19.7105 24.0937 22.851 24.3425 25.2182 25.1475C26.4084 25.5523 27.4943 26.1273 28.2935 26.9649C29.1215 27.8326 29.5893 28.93 29.5893 30.227C29.5893 31.5266 29.1175 32.6234 28.2848 33.4879C27.4817 34.3216 26.392 34.8911 25.2007 35.2907C22.8309 36.0855 19.6917 36.3253 16.461 36.3253C13.2124 36.3253 10.0719 36.0769 7.70449 35.2721C6.51422 34.8675 5.42811 34.2925 4.62871 33.4549C3.80049 32.587 3.33264 31.4894 3.33264 30.192C3.33264 28.892 3.80455 27.7949 4.63746 26.9303C5.44071 26.0965 6.5306 25.5271 7.72197 25.1277ZM6.43793 28.6648C6.04469 29.073 5.83264 29.5519 5.83264 30.192C5.83264 30.8346 6.04459 31.3174 6.4373 31.7289C6.85884 32.1706 7.53481 32.574 8.50913 32.9052C10.4709 33.5721 13.2695 33.8253 16.461 33.8253C19.6386 33.8253 22.4386 33.5802 24.4058 32.9204C25.3831 32.5927 26.0614 32.1925 26.4842 31.7535C26.8774 31.3454 27.0893 30.8666 27.0893 30.227C27.0893 29.5848 26.8775 29.1022 26.4848 28.6907C26.0634 28.2491 25.3875 27.8457 24.4133 27.5144C22.4518 26.8473 19.6531 26.5937 16.461 26.5937C13.2841 26.5937 10.4841 26.8384 8.51664 27.498C7.53926 27.8257 6.86083 28.2258 6.43793 28.6648Z" fill="#007312"/>
<path id="Stroke 3 (Stroke)" fill-rule="evenodd" clip-rule="evenodd" d="M7.59934 12.1943C7.60055 7.30011 11.5679 3.33316 16.461 3.33316C21.3564 3.33316 25.3243 7.30114 25.3243 12.1965C25.3243 17.0918 21.3564 21.0598 16.461 21.0598H16.4093L16.4049 21.0598C11.5236 21.0423 7.58308 17.0736 7.59934 12.1943ZM16.461 5.83316C12.9482 5.83316 10.0993 8.68167 10.0993 12.1965V12.201H10.0993C10.0868 15.6999 12.9113 18.5462 16.4117 18.5598H16.461C19.9756 18.5598 22.8243 15.7111 22.8243 12.1965C22.8243 8.68185 19.9756 5.83316 16.461 5.83316Z" fill="#007312"/>
<path id="Stroke 5 (Stroke)" fill-rule="evenodd" clip-rule="evenodd" d="M32.0061 13.1985C32.6965 13.1985 33.2561 13.7581 33.2561 14.4485V21.1318C33.2561 21.8222 32.6965 22.3818 32.0061 22.3818C31.3158 22.3818 30.7561 21.8222 30.7561 21.1318V14.4485C30.7561 13.7581 31.3158 13.1985 32.0061 13.1985Z" fill="#007312"/>
<path id="Stroke 7 (Stroke)" fill-rule="evenodd" clip-rule="evenodd" d="M27.3493 17.79C27.3493 17.0996 27.9089 16.54 28.5993 16.54H35.416C36.1063 16.54 36.666 17.0996 36.666 17.79C36.666 18.4803 36.1063 19.04 35.416 19.04H28.5993C27.9089 19.04 27.3493 18.4803 27.3493 17.79Z" fill="#007312"/>
</g>
</g>
</svg>
